<?xml version="1.0" encoding="UTF-8"?>
<svg id="Layer_1" xmlns="http://www.w3.org/2000/svg" baseProfile="tiny" version="1.2" viewBox="0 0 512 512">
  <!-- Generator: Adobe Illustrator 30.1.0, SVG Export Plug-In . SVG Version: 2.1.1 Build 136)  -->
  <rect id="JavaScript_2" x="53.86" y="53.86" width="404.27" height="404.27" fill="#f0db4f"/>
  <path id="JavaScript_1" d="M217.11,426.46c-30.41,0-48.01-15.7-57.03-34.74l30.95-18.68c5.96,10.56,11.37,19.49,24.45,19.49s20.39-4.87,20.39-23.91v-129.13h37.99v129.67c0,39.34-23.1,57.3-56.76,57.3h.01ZM362.93,392.89c-18.68,0-29.33-9.84-37.45-23.1l-30.95,17.87c11.1,22.02,33.93,38.8,69.21,38.8s62.9-18.77,62.9-52.88c0-31.76-18.14-45.93-50.44-59.74l-9.48-4.06c-16.33-7.13-23.37-11.73-23.37-23.1,0-9.2,7.04-16.24,18.14-16.24s17.96,4.6,24.45,16.24l29.6-18.95c-12.45-22.02-29.78-30.41-53.96-30.41-33.84,0-55.59,21.66-55.59,50.17,0,30.95,18.14,45.66,45.57,57.3l9.48,4.06c17.42,7.67,27.7,12.27,27.7,25.27,0,10.92-10.11,18.77-25.81,18.77h0Z" fill="#323330"/>
</svg>