<?xml version="1.0" encoding="UTF-8"?>
<svg id="Layer_1" xmlns="http://www.w3.org/2000/svg" baseProfile="tiny" version="1.2" viewBox="0 0 512 512">
  <!-- Generator: Adobe Illustrator 30.1.0, SVG Export Plug-In . SVG Version: 2.1.1 Build 136)  -->
  <path id="Sass" d="M244.59,333.6h0ZM401.88,278.67c-12.69,0-25.26,2.9-36.62,8.52-3.73-7.51-7.58-14.08-8.21-19.01-.76-5.75-1.58-9.16-.69-15.97.88-6.82,4.86-16.48,4.8-17.17-.06-.69-.88-4.17-9.03-4.23-8.15-.06-15.15,1.58-15.97,3.73-1.45,3.91-2.59,7.96-3.35,12.06-1.45,7.39-16.29,33.78-24.69,47.55-2.78-5.37-5.11-10.1-5.62-13.89-.76-5.75-1.58-9.16-.69-15.97.88-6.82,4.86-16.48,4.8-17.17s-.88-4.17-9.03-4.23c-8.15-.06-15.15,1.58-15.97,3.73-.82,2.15-1.7,7.2-3.35,12.06-1.64,4.86-21.4,48.81-26.58,60.24-2.65,5.81-4.92,10.48-6.57,13.64-.25.51-.44.82-.57,1.07.19-.32.32-.63.32-.51-1.39,2.72-2.21,4.23-2.21,4.23v.06c-1.07,2.02-2.27,3.85-2.84,3.85-.38,0-1.2-5.3.19-12.57,2.97-15.28,9.98-39.02,9.91-39.84-.06-.44,1.33-4.55-4.61-6.76-5.75-2.08-7.83,1.39-8.33,1.39s-.88,1.26-.88,1.26c0,0,6.38-26.77-12.25-26.77-11.62,0-27.78,12.75-35.74,24.31-4.99,2.72-15.79,8.59-27.15,14.84-4.36,2.4-8.84,4.86-13.07,7.2-.32-.32-.57-.63-.88-.95-22.6-24.12-64.34-41.17-62.57-73.56.63-11.81,4.74-42.81,80.25-80.44,61.88-30.81,111.32-22.35,119.84-3.54,12.25,26.83-26.46,76.78-90.73,83.98-24.5,2.72-37.38-6.76-40.6-10.29-3.35-3.73-3.85-3.91-5.11-3.22-2.08,1.14-.76,4.42,0,6.38,1.89,4.99,9.79,13.83,23.24,18.25,11.81,3.85,40.54,6,75.26-7.45,39.02-15.03,69.39-56.89,60.49-91.93-9.09-35.61-68.13-47.29-123.95-27.47-33.28,11.81-69.27,30.37-95.15,54.55-30.75,28.79-35.67,53.86-33.65,64.34,7.2,37.19,58.47,61.44,78.99,79.37-1.01.57-1.96,1.07-2.84,1.58-10.29,5.11-49.38,25.57-59.16,47.17-11.05,24.5,1.83,42.05,10.29,44.45,26.39,7.32,53.42-5.87,67.94-27.53,14.52-21.66,12.75-49.94,6.06-62.83-.06-.19-.19-.32-.25-.51,2.65-1.58,5.37-3.16,8.08-4.74,5.24-3.09,10.36-5.94,14.84-8.4-2.53,6.82-4.36,15.03-5.3,26.9-1.14,13.89,4.61,31.89,12.06,38.96,3.28,3.09,7.26,3.16,9.72,3.16,8.71,0,12.63-7.2,16.98-15.79,5.37-10.48,10.1-22.67,10.1-22.67,0,0-5.94,32.96,10.29,32.96,5.94,0,11.87-7.64,14.52-11.55v.06s.13-.25.44-.76c.63-.95.95-1.52.95-1.52v-.19c2.4-4.1,7.64-13.51,15.53-29.04,10.23-20.08,20.02-45.15,20.02-45.15.95,5.49,2.27,10.92,3.91,16.29,1.77,6,5.49,12.57,8.46,18.94-2.4,3.28-3.85,5.18-3.85,5.18q0,.06.06.13c-1.89,2.53-4.04,5.24-6.25,7.89-8.08,9.6-17.68,20.58-18.94,23.74-1.52,3.73-1.14,6.5,1.77,8.65,2.15,1.64,5.94,1.89,9.91,1.58,7.26-.51,12.38-2.27,14.84-3.41,4.55-1.64,8.84-3.85,12.75-6.69,7.89-5.81,12.69-14.14,12.25-25.13-.25-6.06-2.21-12.12-4.61-17.81.69-1.01,1.45-2.08,2.15-3.16,12.5-18.25,22.16-38.26,22.16-38.26.95,5.49,2.27,10.92,3.91,16.29,1.52,5.11,4.48,10.73,7.2,16.23-11.74,9.53-19.01,20.58-21.53,27.85-4.67,13.45-1.01,19.51,5.87,20.9,3.09.63,7.51-.82,10.8-2.21,4.86-1.64,9.47-3.98,13.64-7.01,7.89-5.81,15.53-13.95,15.03-25-.19-4.99-1.58-9.98-3.41-14.78,9.91-4.17,22.79-6.44,39.21-4.55,35.17,4.1,42.05,26.08,40.73,35.23-1.33,9.16-8.71,14.27-11.18,15.79-2.46,1.52-3.22,2.08-3.03,3.22.32,1.64,1.45,1.58,3.54,1.2,2.9-.51,18.44-7.45,19.13-24.44,1.01-21.47-19.64-45.08-56.2-44.89h0ZM130.94,370.03c-11.62,12.69-27.91,17.49-34.92,13.45-7.51-4.36-4.55-23.05,9.79-36.56,8.71-8.21,19.95-15.79,27.4-20.46,1.7-1.01,4.17-2.53,7.2-4.36.51-.32.76-.44.76-.44.57-.38,1.2-.69,1.83-1.07,5.24,19.19.19,36.12-12.06,49.44h0ZM215.8,312.32c-4.04,9.91-12.57,35.17-17.74,33.84-4.42-1.14-7.13-20.39-.88-39.34,3.16-9.53,9.85-20.9,13.83-25.32,6.38-7.13,13.39-9.41,15.03-6.57,2.21,3.73-7.7,31.19-10.23,37.38ZM285.89,345.78c-1.7.88-3.28,1.45-4.04,1.01-.57-.32.69-1.52.69-1.52,0,0,8.78-9.41,12.25-13.7,2.02-2.53,4.36-5.49,6.88-8.78,0,.32.06.63.06,1.01-.06,11.3-10.92,18.94-15.85,21.97h0ZM339.94,333.47c-1.26-.88-1.07-3.85,3.16-13.07,1.64-3.6,5.43-9.66,12-15.47.76,2.21,1.14,4.48,1.2,6.82-.06,14.21-10.23,19.51-16.35,21.72h0Z" fill="#c69"/>
</svg>