<?xml version="1.0" encoding="UTF-8"?>
<svg id="Layer_1" xmlns="http://www.w3.org/2000/svg" baseProfile="tiny" version="1.2" viewBox="0 0 512 512">
  <!-- Generator: Adobe Illustrator 30.1.0, SVG Export Plug-In . SVG Version: 2.1.1 Build 136)  -->
  <g id="URBI_x21_">
    <path id="_x21_" d="M467.26,169.66v120.82h-36.57v-120.82h36.57ZM430.69,342.34h36.57v-36.57h-36.57v36.57Z" fill="#6cff96"/>
    <path id="B" d="M413.98,262.82c-3.04-6.07-7.31-11.16-12.72-15.14h0c-3.85-2.83-8.22-5.35-13.04-7.52,6.58-3.21,11.8-7.7,15.55-13.4,4.64-7.04,7.83-15.42,9.48-24.89,1.61-9.29,2.35-19.33,2.19-29.82l-.04-2.39h-117.98v151.63l11.44,21.05h45.41c11.77,0,22.6-1.96,32.19-5.81,9.76-3.91,17.63-10.14,23.39-18.5,5.77-8.36,8.7-19.15,8.7-32.07,0-9.29-1.54-17.07-4.57-23.14ZM330.09,262.98h24.18c9.45,0,16.68,1.96,21.49,5.82,4.65,3.73,7,9.99,7,18.6s-2.36,14.87-7,18.6h0c-4.8,3.86-12.04,5.82-21.49,5.82h-24.18v-48.84ZM330.09,232.78v-31.89h50.68c-.37,5.38-1.98,9.94-4.8,13.58-3.34,4.31-7.73,7.78-13.04,10.33-5.46,2.62-11.4,4.57-17.64,5.8-5.35,1.06-10.45,1.79-15.2,2.18Z" fill="#6cff96"/>
    <path id="R" d="M245.95,258.62c6.23-4.73,12.11-10.72,17.49-17.81,5.89-7.77,10.66-17.42,14.17-28.67,3.5-11.24,5.03-24.74,4.54-40.12l-.07-2.35h-92.53v29.55h60.54c-.4,4.33-1.84,8.93-4.3,13.72-2.98,5.81-7.18,11.36-12.48,16.51-5.28,5.13-11.54,9.37-18.61,12.6-7,3.19-14.64,4.81-22.72,4.81h-2.43v31.47h2.43c2.36,0,6.44-.41,10.92-1.11,4.25-.66,9.05-1.88,14.29-3.63l37.35,68.75h36.93l-45.53-83.72Z" fill="#6cff96"/>
    <path id="U" d="M141.83,169.66v143.34c-6.89-.13-13.94-.84-21-2.1-7.76-1.38-15.05-3.95-21.66-7.64-6.45-3.6-11.74-8.98-15.73-15.98-4-7.02-6.03-16.42-6.03-27.93v-89.69h-32.67v89.93c0,13.54,2.08,25.24,6.19,34.76,4.11,9.55,9.77,17.58,16.79,23.86,6.97,6.24,14.91,11.18,23.6,14.7,8.61,3.5,17.71,5.97,27.05,7.34,9.25,1.37,18.44,2.07,27.33,2.07h28.56v-172.67h-32.43Z" fill="#6cff96"/>
  </g>
</svg>